# xmcd
#
# Track frame offsets:
#	182
#	15107
#	64497
#	107807
#	161507
#	212487
#
# Disc length: 3003 seconds
#
# Revision: 0
# Processed by: cddbd v1.5.1PL0 Copyright (c) Steve Scherf et al.
# Submitted via: dBpowerAMP V4.0
#
DISCID=450bb906
DTITLE=John Starus  - 约翰施特劳斯舞曲集
DYEAR=1900
DGENRE=Classical
TTITLE0=雷鸣闪电波尔卡
TTITLE1=美丽的蓝色多瑙河
TTITLE2=维也纳圆舞曲
TTITLE3=皇帝圆舞曲
TTITLE4=早板圆舞曲
TTITLE5=匈牙利波尔卡
EXTD=John Starus \n约翰施特劳斯舞曲集
EXTT0=
EXTT1=
EXTT2=
EXTT3=
EXTT4=
EXTT5=
PLAYORDER=
